<mxfile host="app.diagrams.net" modified="2023-05-24T08:06:41.843Z" agent="Mozilla/5.0 (Windows NT 10.0; Win64; x64) AppleWebKit/537.36 (KHTML, like Gecko) Chrome/113.0.0.0 Safari/537.36" version="21.3.3" etag="ZsW1e8DSnR0d4kd-zh3n" type="github">
  <diagram name="第 1 页" id="TvelSALm_v16AcPf-l3r">
    <mxGraphModel>
      <root>
        <mxCell id="0" />
        <mxCell id="1" parent="0" />
      </root>
    </mxGraphModel>
  </diagram>
</mxfile>
